<svg width="50" height="38" viewBox="0 0 50 38" fill="none" xmlns="http://www.w3.org/2000/svg">
<path d="M42.2038 3.14999C39.0263 1.692 35.6188 0.617812 32.0561 0.00258081C31.9913 -0.00929295 31.9265 0.0203802 31.893 0.079728C31.4548 0.859149 30.9694 1.87597 30.6295 2.67518C26.7976 2.10151 22.9853 2.10151 19.232 2.67518C18.892 1.8582 18.389 0.859149 17.9488 0.079728C17.9153 0.0223604 17.8505 -0.00731282 17.7857 0.00258081C14.2249 0.615846 10.8175 1.69003 7.63797 3.14999C7.61044 3.16186 7.58685 3.18166 7.57119 3.20736C1.108 12.8632 -0.662544 22.2818 0.206023 31.5836C0.209953 31.6291 0.235499 31.6726 0.270871 31.7003C4.5351 34.8318 8.66574 36.733 12.7197 37.9931C12.7846 38.0129 12.8533 37.9891 12.8946 37.9357C13.8535 36.6262 14.7084 35.2453 15.4413 33.7932C15.4846 33.7082 15.4433 33.6073 15.3549 33.5737C13.999 33.0593 12.7079 32.4322 11.4659 31.7201C11.3677 31.6627 11.3598 31.5222 11.4502 31.4549C11.7116 31.2591 11.973 31.0553 12.2225 30.8496C12.2677 30.812 12.3306 30.8041 12.3837 30.8278C20.5427 34.5529 29.3757 34.5529 37.4385 30.8278C37.4915 30.8021 37.5545 30.81 37.6016 30.8476C37.8512 31.0533 38.1125 31.2591 38.3759 31.4549C38.4662 31.5222 38.4603 31.6627 38.3621 31.7201C37.1202 32.446 35.8291 33.0593 34.4712 33.5717C34.3828 33.6053 34.3435 33.7082 34.3867 33.7932C35.1354 35.2433 35.9902 36.6241 36.9315 37.9337C36.9708 37.9891 37.0415 38.0129 37.1064 37.9931C41.18 36.733 45.3106 34.8318 49.5748 31.7003C49.6122 31.6726 49.6358 31.631 49.6397 31.5855C50.6792 20.8317 47.8986 11.4903 42.2686 3.20933C42.2549 3.18166 42.2314 3.16186 42.2038 3.14999ZM16.6597 25.9197C14.2033 25.9197 12.1793 23.6646 12.1793 20.895C12.1793 18.1254 14.164 15.8702 16.6597 15.8702C19.175 15.8702 21.1794 18.1452 21.1401 20.895C21.1401 23.6646 19.1553 25.9197 16.6597 25.9197ZM33.2253 25.9197C30.769 25.9197 28.745 23.6646 28.745 20.895C28.745 18.1254 30.7297 15.8702 33.2253 15.8702C35.7407 15.8702 37.745 18.1452 37.7058 20.895C37.7058 23.6646 35.7407 25.9197 33.2253 25.9197Z" fill="#EEE9E1"/>
</svg>
