<svg width="30" height="34" viewBox="0 0 30 34" fill="none" xmlns="http://www.w3.org/2000/svg">
<g clip-path="url(#clip0_645_269)">
<mask id="mask0_645_269" style="mask-type:luminance" maskUnits="userSpaceOnUse" x="0" y="0" width="30" height="34">
<path d="M30 0H0V34H30V0Z" fill="white"/>
</mask>
<g mask="url(#mask0_645_269)">
<path d="M18.1426 8H12.5703L12.6055 12.1133H18.1426C19.5254 12.1133 20.6914 12.4238 21.6406 13.0449C22.5898 13.6777 23.3047 14.5977 23.7852 15.8047C24.2773 17.0117 24.5234 18.4707 24.5234 20.1816V21.4297C24.5234 22.7422 24.3828 23.8965 24.1016 24.8926C23.832 25.8887 23.4277 26.7266 22.8887 27.4062C22.3496 28.0859 21.6875 28.5957 20.9023 28.9355C20.1172 29.2871 19.2148 29.4629 18.1953 29.4629H12.4648V33.5937H18.1953C19.9062 33.5937 21.4707 33.3008 22.8887 32.7148C24.3184 32.1406 25.5547 31.3145 26.5977 30.2363C27.6406 29.1582 28.4434 27.8691 29.0059 26.3691C29.5801 24.8809 29.8672 23.2227 29.8672 21.3945V20.1816C29.8672 18.3652 29.5801 16.707 29.0059 15.207C28.4434 13.707 27.6406 12.418 26.5977 11.3398C25.5664 10.2734 24.3301 9.44726 22.8887 8.86133C21.459 8.28711 19.877 8 18.1426 8ZM15.5586 33.5937V8H10.2852V33.5937H15.5586Z" fill="#181D29"/>
<path d="M15.9941 7H10.4219L10.457 11.1133H15.9941C17.377 11.1133 18.543 11.4238 19.4922 12.0449C20.4414 12.6777 21.1562 13.5977 21.6367 14.8047C22.1289 16.0117 22.375 17.4707 22.375 19.1816V20.4297C22.375 21.7422 22.2344 22.8965 21.9531 23.8926C21.6836 24.8887 21.2793 25.7266 20.7402 26.4062C20.2012 27.0859 19.5391 27.5957 18.7539 27.9355C17.9687 28.2871 17.0664 28.4629 16.0469 28.4629H10.3164V32.5937H16.0469C17.7578 32.5937 19.3223 32.3008 20.7402 31.7148C22.1699 31.1406 23.4062 30.3145 24.4492 29.2363C25.4922 28.1582 26.2949 26.8691 26.8574 25.3691C27.4316 23.8809 27.7187 22.2227 27.7187 20.3945V19.1816C27.7187 17.3652 27.4316 15.707 26.8574 14.207C26.2949 12.707 25.4922 11.418 24.4492 10.3398C23.418 9.27344 22.1816 8.44726 20.7402 7.86133C19.3105 7.28711 17.7285 7 15.9941 7ZM13.4102 32.5937V7H8.13672V32.5937H13.4102Z" fill="#EEE9E1"/>
<path d="M18.7383 5.11328V1H5.85352V5.11328H18.7383ZM7.5586 26.5937V1H2.28516L2.28517 26.5937H7.5586Z" fill="#181D29"/>
<path d="M16.7383 4.11328V0L3.85351 1.12642e-06V4.11328H16.7383ZM5.55859 25.5937V9.77357e-07L0.285156 1.43837e-06L0.285159 25.5937H5.55859Z" fill="#90D491"/>
</g>
</g>
<defs>
<clipPath id="clip0_645_269">
<rect width="30" height="34" fill="white"/>
</clipPath>
</defs>
</svg>
