<?xml version="1.0" standalone="no"?>
<!DOCTYPE svg PUBLIC "-//W3C//DTD SVG 20010904//EN"
 "http://www.w3.org/TR/2001/REC-SVG-20010904/DTD/svg10.dtd">
<svg version="1.0" xmlns="http://www.w3.org/2000/svg"
 width="128.000000pt" height="128.000000pt" viewBox="0 0 128.000000 128.000000"
 preserveAspectRatio="xMidYMid meet">
<metadata>
Created by potrace 1.14, written by Peter Selinger 2001-2017
</metadata>
<g transform="translate(0.000000,128.000000) scale(0.100000,-0.100000)"
fill="#000000" stroke="none">
<path d="M11 805 c0 -355 3 -476 12 -482 7 -4 23 -8 37 -9 38 -2 40 -3 40 -19
0 -13 17 -15 112 -13 l112 3 -1 385 c-1 212 1 393 3 402 5 15 25 17 202 17
108 0 214 0 235 0 l37 1 0 75 c0 81 0 81 -62 76 -22 -2 -26 1 -23 18 4 21 2
21 -350 21 l-354 0 0 -475z"/>
<path d="M350 1006 c-1 -20 -1 -860 -1 -909 1 -48 1 -49 34 -47 49 3 54 1 59
-18 5 -17 20 -18 209 -17 126 1 225 7 259 15 143 33 262 124 318 242 36 75 45
124 44 238 0 139 -33 227 -117 318 -64 69 -186 134 -325 172 -60 17 -480 22
-480 6z m515 -203 c28 -20 71 -101 81 -153 4 -19 7 -78 6 -130 -1 -193 -74
-292 -227 -307 l-61 -5 0 309 0 310 88 -3 c65 -2 95 -8 113 -21z"/>
</g>
</svg>
